<?xml version="1.0" encoding="utf-8"?>
<!-- Generator: Adobe Illustrator 22.1.0, SVG Export Plug-In . SVG Version: 6.00 Build 0)  -->
<svg version="1.1" id="图层_1" xmlns="http://www.w3.org/2000/svg" xmlns:xlink="http://www.w3.org/1999/xlink" x="0px" y="0px"
	 viewBox="0 0 800 901.3" style="enable-background:new 0 0 800 901.3;" xml:space="preserve">
<style type="text/css">
	.st0{fill:#CCCCCC;}
	.st1{font-family:'Caveat-Regular';}
	.st2{font-size:200px;}
</style>
<text transform="matrix(1 0 0 1 54.1395 812.8115)" class="st0 st1 st2">Passenger</text>
<path class="st0" d="M492.4,336.4c-11.6-4.2-24.5-6.6-38.2-6.8c-8.3,21.5-35.3,37.3-67.4,37.3s-59.1-15.8-67.4-37.3
	c-50.7,0.8-91.5,32.2-91.5,70.9l-17.5,100.2c0.6,2.1,1.5,4.3,2.7,6.4c10.2,18.1,26.7,31.4,68,39.1c81.3-15.6,152.2-50.4,183.5-103.5
	C489.7,400.3,491.6,357.6,492.4,336.4z M550.2,399.6c0-23.8-19.8-43.9-43.3-56.8c-1.1,23-5,65.7-29.6,107.4
	c-28.4,48.1-73.7,78.9-139.6,98.2h50.1c85.5,0,154.4-17.2,174.2-40.1c2.9-4.2,9.1-13.4,9.6-15.5L550.2,399.6z M386.9,338.8
	c12.2,0,23.7-3.5,34.3-9.3c12.4-6.8,23.6-17.1,32.6-29.2c16.4-21.7,26.5-49.4,26.5-74.5c0-51.1-41.9-92.5-93.5-92.5
	s-93.5,41.4-93.5,92.5c0,25.1,10.1,52.8,26.5,74.5c9.1,12.1,20.2,22.4,32.6,29.2C363.2,335.3,374.7,338.8,386.9,338.8z"/>
</svg>
