<?xml version="1.0" standalone="no"?><!DOCTYPE svg PUBLIC "-//W3C//DTD SVG 1.1//EN" "http://www.w3.org/Graphics/SVG/1.1/DTD/svg11.dtd"><svg t="1557126320395" class="icon" style="" viewBox="0 0 1024 1024" version="1.1" xmlns="http://www.w3.org/2000/svg" p-id="3194" xmlns:xlink="http://www.w3.org/1999/xlink" width="800" height="800"><defs><style type="text/css"></style></defs><path d="M926.698418 347.505575l-82.039481 0c-3.901867 0-7.489578 1.162476-10.707876 2.899026L796.964682 239.006466c-11.835559-63.379493-56.432267-93.938486-111.24771-93.938486L338.282005 145.06798c-62.922075 0-101.110839 41.050951-111.248733 93.877087l-37.08257 111.775736c-3.373841-1.956561-7.203052-3.216251-11.360745-3.216251l-82.058924 0c-12.607132 0-22.842241 10.216689-22.842241 22.86066l0 19.822464c0 12.606109 10.235109 22.842241 22.842241 22.842241l31.066553 5.307889c-9.806343 19.171642-15.405875 41.10621-15.405875 66.626443l-11.500938 131.4928c0 3.807722 0.279363 7.692193 0.75213 11.598152-0.434905 2.384303-0.75213 4.872984-0.75213 7.416923l0 158.189835c0 22.505573 18.269086 40.751123 40.775682 40.751123l62.231343 0c22.525016 0 40.769542-18.244526 40.769542-40.751123l0-50.848085 535.039739 0 0 50.848085c0 22.505573 18.249643 40.749076 40.775682 40.749076l62.23032 0c22.506597 0 40.771589-18.243503 40.771589-40.749076L923.284669 635.472126c0-2.549056-0.313132-5.031597-0.75213-7.416923 0.452301-3.906983 0.75213-7.789407 0.75213-11.599176l-11.501962-131.48666c0-25.585725-5.618974-47.538713-15.461133-66.772776l30.376844-5.166673c12.624529 0 22.842241-10.235109 22.842241-22.843264l0-19.822464C949.542706 357.721241 939.324994 347.505575 926.698418 347.505575zM254.468111 324.094376l27.15957-72.28942 0.378623-1.694595c2.701528-14.618952 8.736988-17.223267 17.652032-28.509311l425.191912 0c8.992815 11.598152 14.59951 14.543228 17.081027 28.350698l27.594475 74.143651 10.101055 40.275285c-2.292206 29.470195-37.699624 52.746318-67.166749 52.746318L311.531757 417.117003c-29.488615 0-64.897056-23.276123-67.184145-52.746318L254.468111 324.094376zM273.501606 667.861814c-34.104749 0-61.736063-27.638477-61.736063-61.741179 0-34.106796 27.630291-61.737086 61.736063-61.737086 34.105772 0 61.741179 27.630291 61.741179 61.737086C335.242785 640.223337 307.607378 667.861814 273.501606 667.861814zM618.318956 622.314455l-0.00307 0c0 10.157337-8.226359 18.362206-18.368346 18.362206L426.747849 640.676661c-10.136871 0-18.3663-8.205892-18.3663-18.362206l0-51.602262c0-10.136871 8.224312-18.343787 18.3663-18.343787l173.201737 0c10.141988 0 18.36937 8.205892 18.36937 18.343787L618.318956 622.314455zM750.474858 667.861814c-34.105772 0-61.760622-27.638477-61.760622-61.741179 0-34.106796 27.653827-61.737086 61.760622-61.737086 34.102702 0 61.73504 27.630291 61.73504 61.737086C812.216038 640.223337 784.57756 667.861814 750.474858 667.861814z" p-id="3195" fill="#CCCCCC"></path></svg>