<?xml version="1.0" encoding="utf-8"?>
<!-- Generator: Adobe Illustrator 22.1.0, SVG Export Plug-In . SVG Version: 6.00 Build 0)  -->
<svg version="1.1" id="图层_1" xmlns="http://www.w3.org/2000/svg" xmlns:xlink="http://www.w3.org/1999/xlink" x="0px" y="0px"
	 viewBox="0 0 800 901.3" style="enable-background:new 0 0 800 901.3;" xml:space="preserve">
<style type="text/css">
	.st0{fill:#C69214;}
	.st1{fill:#FFFFFF;}
	.st2{fill:none;}
	.st3{font-family:'Caveat-Regular';}
	.st4{font-size:200px;}
</style>
<circle class="st0" cx="391" cy="346.8" r="297.1"/>
<path class="st1" d="M603.3,257.7l-42.9-0.4c-2,0-3.9,0.6-5.6,1.4l-18.7-58.4c-5.9-33.2-29-49.4-57.6-49.7l-181.6-1.9
	c-32.9-0.3-53,21-58.6,48.5l-20,58.2c-1.8-1-3.8-1.7-5.9-1.8l-42.9-0.4c-6.6-0.1-12,5.2-12,11.8l-0.1,10.4c-0.1,6.6,5.2,12,11.8,12
	l16.2,3c-5.2,9.9-8.2,21.4-8.4,34.7l-6.7,68.6c0,2,0.1,4,0.3,6.1c-0.2,1.2-0.4,2.5-0.4,3.9l-0.9,82.7c-0.1,11.8,9.3,21.4,21.1,21.5
	l32.5,0.3c11.8,0.1,21.4-9.3,21.5-21.1l0.3-26.6l279.6,2.9l-0.3,26.6c-0.1,11.8,9.3,21.4,21.1,21.5l32.5,0.3
	c11.8,0.1,21.4-9.3,21.5-21.1l0.9-82.7c0-1.3-0.2-2.6-0.4-3.9c0.2-2,0.4-4.1,0.5-6.1l-5.3-68.8c0.1-13.4-2.6-24.8-7.7-35l15.9-2.5
	c6.6,0.1,12-5.2,12-11.8l0.1-10.4C615.1,263.1,609.9,257.7,603.3,257.7z M252.1,241.7l14.6-37.7l0.2-0.9c1.5-7.6,4.7-9,9.4-14.8
	l222.2,2.3c4.6,6.1,7.5,7.7,8.7,14.9l14,38.8l5.1,21.1c-1.4,15.4-20,27.4-35.4,27.2l-209.5-2.2c-15.4-0.2-33.8-12.6-34.8-28
	L252.1,241.7z M260.3,421.5c-17.8-0.2-32.1-14.7-32-32.6c0.2-17.8,14.7-32.1,32.6-32c17.8,0.2,32.1,14.7,32,32.6
	C292.6,407.4,278.1,421.7,260.3,421.5z M440.7,399.6L440.7,399.6c-0.1,5.3-4.4,9.6-9.7,9.5l-90.5-0.9c-5.3-0.1-9.6-4.4-9.5-9.7
	l0.3-27c0.1-5.3,4.4-9.6,9.7-9.5l90.5,0.9c5.3,0.1,9.6,4.4,9.5,9.7L440.7,399.6z M509.4,424.1c-17.8-0.2-32.1-14.7-32-32.6
	c0.2-17.8,14.7-32.1,32.6-32c17.8,0.2,32.1,14.7,32,32.6C541.9,409.9,527.2,424.3,509.4,424.1z"/>
<rect x="108.7" y="651.8" class="st2" width="554.5" height="274.9"/>
<text transform="matrix(1 0 0 1 171.8934 812.8122)" class="st0 st3 st4">Driver</text>
</svg>
