<?xml version="1.0" standalone="no"?><!DOCTYPE svg PUBLIC "-//W3C//DTD SVG 1.1//EN" "http://www.w3.org/Graphics/SVG/1.1/DTD/svg11.dtd"><svg t="1557171926198" class="icon" style="" viewBox="0 0 1280 1024" version="1.1" xmlns="http://www.w3.org/2000/svg" p-id="1173" xmlns:xlink="http://www.w3.org/1999/xlink" width="1000" height="800"><defs><style type="text/css"></style></defs><path d="M1246.037333 295.594667h-119.722666a33.28 33.28 0 0 0-15.616 4.181333l-53.930667-162.218667c-17.237333-92.245333-82.346667-136.789333-162.304-136.789333h-506.965333c-91.818667 0-147.541333 59.733333-162.304 136.704l-54.101334 162.730667a33.28 33.28 0 0 0-16.554666-4.693334h-119.722667a33.28 33.28 0 0 0-33.365333 33.28v28.842667c0 18.346667 14.933333 33.28 33.365333 33.28l45.312 7.765333a208.384 208.384 0 0 0-22.442667 97.024l-16.810666 191.402667c0 5.546667 0.426667 11.178667 1.109333 16.896a63.914667 63.914667 0 0 0-1.109333 10.837333v230.314667c0 32.768 26.624 59.306667 59.477333 59.306667h90.794667a59.392 59.392 0 0 0 59.477333-59.306667v-73.984h780.714667v73.984c0 32.768 26.624 59.306667 59.477333 59.306667h90.794667a59.392 59.392 0 0 0 59.477333-59.306667v-230.314667a56.234667 56.234667 0 0 0-1.109333-10.837333c0.682667-5.717333 1.109333-11.349333 1.109333-16.896l-16.810667-191.402667c0-37.290667-8.192-69.205333-22.528-97.194666l44.288-7.509334a33.28 33.28 0 0 0 33.365334-33.28v-28.842666a33.450667 33.450667 0 0 0-33.365334-33.28z m-980.906666-34.048l39.594666-105.216 0.512-2.474667c3.925333-21.248 12.714667-25.088 25.770667-41.472h620.458667c13.141333 16.896 21.333333 21.162667 24.917333 41.301333l40.277333 107.946667 14.762667 58.624c-3.328 42.922667-55.04 76.8-97.962667 76.8h-585.045333c-43.008 0-94.72-33.877333-98.048-76.8l14.762667-58.709333z m27.733333 500.48a89.941333 89.941333 0 0 1 0-179.712 89.941333 89.941333 0 1 1 0 179.712z m503.125333-66.304a26.794667 26.794667 0 0 1-26.794666 26.709333h-252.757334a26.794667 26.794667 0 0 1-26.794666-26.709333v-75.093334c0-14.762667 12.032-26.709333 26.794666-26.709333h252.757334c14.762667 0 26.794667 11.946667 26.794666 26.709333v75.093334z m192.853334 66.304c-49.749333 0-90.112-40.192-90.112-89.856s40.362667-89.856 90.112-89.856c49.749333 0 90.112 40.192 90.112 89.856 0 49.578667-40.362667 89.856-90.112 89.856z" p-id="1174" fill="#C69214"></path></svg>