<?xml version="1.0" encoding="utf-8"?>
<!-- Generator: Adobe Illustrator 22.1.0, SVG Export Plug-In . SVG Version: 6.00 Build 0)  -->
<svg version="1.1" id="图层_1" xmlns="http://www.w3.org/2000/svg" xmlns:xlink="http://www.w3.org/1999/xlink" x="0px" y="0px"
	 viewBox="0 0 800 800" style="enable-background:new 0 0 800 800;" xml:space="preserve">
<style type="text/css">
	.st0{fill:#FFFFFF;}
</style>
<path class="st0" d="M743.5,380.7L422.3,60.4c-0.2-0.2-0.3-0.4-0.5-0.5c-0.4-0.4-0.8-0.7-1.1-1.1c-11.4-10.8-29.4-10.6-40.6,0.6
	c-1.5,1.5-2.8,3.1-3.9,4.8L58.4,381.1C47,392.5,47,411,58.4,422.4c7,7,16.6,9.7,25.6,8.1l50.5-0.1c26.6,1.3,32.1,7.4,33.2,35.2
	l0.2,203.2c2.7,29.7,27.6,53,58.1,53h58.3c32.2,0,58.3-26.1,58.3-58.3v-31h0.2l-0.1-55.4c1.6-23.3,8-28.8,32.4-30.1l49.4-0.1
	c27.3,1.2,33.5,7.2,34.8,36.4l0.1,85.2c2.6,29.8,27.6,53.2,58.1,53.2h58.3c32.2,0,58.3-26.1,58.3-58.3v-31h0.2l-0.2-202.7
	c0-16.1-13.1-29.2-29.2-29.2c-16.1,0-29.2,13.1-29.2,29.2l0.2,207c-1.9,19.5-8.3,25-30.1,26.6c-28.9-2.2-28.2-12.2-28.2-57.7
	l-0.1,9.7l-0.1-36.6h-0.1v-31c0-32.2-26.1-58.3-58.3-58.3h-29.2v-0.8l-58.3,0.1v0.7h-29.2c-31.5,0-57.1,24.9-58.3,56.1l0.1,77.6
	c-0.4,30.9-3.5,38.4-29.2,40.2c-20.7-1.5-27.1-6.7-29.1-25.4l-0.2-175.9H226v-31c0-32.2-26.1-58.3-58.3-58.3h-18.3l251.8-251.1
	l301.1,300.2c11.4,11.4,29.8,11.4,41.2,0C754.9,410.5,754.9,392,743.5,380.7z M226.3,663.6l14.1,0.1l-14.1,0V663.6z"/>
</svg>
