<?xml version="1.0" encoding="utf-8"?>
<!-- Generator: Adobe Illustrator 22.1.0, SVG Export Plug-In . SVG Version: 6.00 Build 0)  -->
<svg version="1.1" id="图层_1" xmlns="http://www.w3.org/2000/svg" xmlns:xlink="http://www.w3.org/1999/xlink" x="0px" y="0px"
	 viewBox="0 0 800 800" style="enable-background:new 0 0 800 800;" xml:space="preserve">
<style type="text/css">
	.st0{fill:#FFFFFF;}
</style>
<path class="st0" d="M502.3,625.6c0,9.4-7.9,17.3-17.3,17.3H173.9c-9.4,0-17.3-8-17.3-17.3V174.4c0-9.4,7.9-17.3,17.3-17.3H485
	c9.4,0,17.3,8,17.3,17.3v69.5h69.1v-69.5c0-47.7-38.9-86.8-86.4-86.8H173.9c-47.5,0-86.4,39.1-86.4,86.8v451.2
	c0,47.7,38.9,86.8,86.4,86.8H485c47.5,0,86.4-39.1,86.4-86.8v-69.4h-69.1V625.6L502.3,625.6z M712.5,400L608.8,295.9v69.4H361.1
	v69.4h247.7V504L712.5,400z"/>
</svg>
