<?xml version="1.0" standalone="no"?><!DOCTYPE svg PUBLIC "-//W3C//DTD SVG 1.1//EN" "http://www.w3.org/Graphics/SVG/1.1/DTD/svg11.dtd"><svg class="icon" width="200px" height="200.00px" viewBox="0 0 1024 1024" version="1.1" xmlns="http://www.w3.org/2000/svg"><path d="M512 896c212.078933 0 384-171.921067 384-384s-171.921067-384-384-384-384 171.921067-384 384 171.921067 384 384 384z m0 42.666667c-235.639467 0-426.666667-191.0272-426.666667-426.666667S276.360533 85.333333 512 85.333333s426.666667 191.0272 426.666667 426.666667-191.0272 426.666667-426.666667 426.666667z" fill="#182B49" /><path d="M512 797.866667c157.879467 0 285.866667-127.9872 285.866667-285.866667s-127.9872-285.866667-285.866667-285.866667-285.866667 127.9872-285.866667 285.866667 127.9872 285.866667 285.866667 285.866667z m0 42.666666c-181.444267 0-328.533333-147.089067-328.533333-328.533333s147.089067-328.533333 328.533333-328.533333 328.533333 147.089067 328.533333 328.533333-147.089067 328.533333-328.533333 328.533333z" fill="#182B49" /><path d="M533.333333 683.968c41.365333-10.346667 72.644267-47.044267 74.210134-91.7888 1.890133-54.161067-40.4864-99.605333-94.651734-101.495467a21.589333 21.589333 0 0 0-2.133333 0.029867 21.589333 21.589333 0 0 0-2.129067-0.1792c-28.258133-0.989867-50.368-24.695467-49.3824-52.957867 0.9856-28.258133 24.695467-50.368 52.957867-49.3824 28.258133 0.989867 50.368 24.695467 49.378133 52.957867a21.333333 21.333333 0 0 0 42.641067 1.489067c1.578667-45.047467-28.864-83.7888-70.890667-94.3232V328.533333a21.333333 21.333333 0 1 0-42.666666 0v19.042134c-41.088 8.8064-72.5248 44.612267-74.0608 88.512-1.809067 51.810133 38.724267 95.274667 90.5344 97.088 0.721067 0.0256 1.4336 0.0128 2.133333-0.034134 0.699733 0.093867 1.408 0.157867 2.133333 0.183467 30.613333 1.066667 54.562133 26.752 53.495467 57.365333-1.066667 30.6176-26.752 54.570667-57.3696 53.499734-30.613333-1.066667-54.5664-26.752-53.495467-57.3696a21.333333 21.333333 0 1 0-42.641066-1.489067c-1.706667 48.917333 32.6912 90.722133 79.2704 99.754667V704a21.333333 21.333333 0 1 0 42.666666 0v-20.032z" fill="#182B49" /></svg>