<?xml version="1.0" encoding="utf-8"?>
<!-- Generator: Adobe Illustrator 22.1.0, SVG Export Plug-In . SVG Version: 6.00 Build 0)  -->
<svg version="1.1" id="图层_1" xmlns="http://www.w3.org/2000/svg" xmlns:xlink="http://www.w3.org/1999/xlink" x="0px" y="0px"
	 viewBox="0 0 800 800" style="enable-background:new 0 0 800 800;" xml:space="preserve">
<style type="text/css">
	.st0{fill:#FFFFFF;}
</style>
<path class="st0" d="M399.4,50.2C206.5,50.2,50,206.6,50,399.5s156.4,349.4,349.4,349.4s349.4-156.4,349.4-349.4
	S592.3,50.2,399.4,50.2z M400.4,697c-164.7,0-298.2-133.5-298.2-298.2s133.5-298.2,298.2-298.2s298.2,133.5,298.2,298.2
	S565.1,697,400.4,697z"/>
<path class="st0" d="M598.5,423.3c0-13.9-11.4-25.3-25.3-25.3H372.7c-13.9,0-25.3,11.4-25.3,25.3c0,13.9,11.4,25.3,25.3,25.3h200.6
	C587.2,448.7,598.5,437.3,598.5,423.3z"/>
<path class="st0" d="M400.7,498.6c14.6,0,26.6-12,26.6-26.6V175c0-14.6-12-26.6-26.6-26.6c-14.6,0-26.6,12-26.6,26.6v297
	C374.1,486.6,386.1,498.6,400.7,498.6L400.7,498.6z"/>
</svg>
