<?xml version="1.0" standalone="no"?><!DOCTYPE svg PUBLIC "-//W3C//DTD SVG 1.1//EN" "http://www.w3.org/Graphics/SVG/1.1/DTD/svg11.dtd"><svg t="1557127388803" class="icon" style="" viewBox="0 0 1024 1024" version="1.1" xmlns="http://www.w3.org/2000/svg" p-id="4698" xmlns:xlink="http://www.w3.org/1999/xlink" width="800" height="800"><defs><style type="text/css"></style></defs><path d="M759.393341 501.070918C730.76896 490.737075 698.931802 484.721546 665.309184 484.22328 644.80759 537.231581 578.180003 576.184611 499.12689 576.184611 420.084157 576.184611 353.46176 537.241962 332.954976 484.22328 208.045763 486.076208 107.323244 563.520333 107.323244 659.171952L64 906.249907C65.385804 911.53361 67.679907 916.848454 70.679887 921.914166 95.82678 966.628403 136.427723 999.451715 238.260962 1018.391037 438.76656 979.946656 613.655546 894.192896 690.87649 763.38753 752.645981 658.76711 757.472938 553.53424 759.393341 501.070918ZM901.925798 657.06641C901.925798 598.468179 853.104832 548.840154 795.098294 517.1068 792.435683 573.893622 782.797338 679.152445 722.164518 781.857648 652.14249 900.465862 540.372122 976.483011 377.952778 1024L501.582608 1024C712.489523 1024 882.265613 981.605456 931.035174 925.070301 938.155629 914.715507 953.368067 892.067562 954.738301 886.78905L901.925798 657.06641ZM499.135712 507.04337C529.104374 507.04337 557.469238 498.520934 583.71647 483.998541 614.385818 467.171661 641.816432 441.817158 664.165766 411.874448 704.722592 358.378259 729.615162 290.167637 729.615162 228.169776 729.615162 102.113514 626.344218 0 499.135712 0 371.93759 0 268.661454 102.103133 268.661454 228.169776 268.661454 290.167637 293.564404 358.378259 334.116038 411.874448 356.470563 441.817158 383.906368 467.171661 414.554957 483.998541 440.828138 498.520934 469.182624 507.04337 499.135712 507.04337Z" p-id="4699" fill="#182B49"></path></svg>