<?xml version="1.0" standalone="no"?><!DOCTYPE svg PUBLIC "-//W3C//DTD SVG 1.1//EN" "http://www.w3.org/Graphics/SVG/1.1/DTD/svg11.dtd"><svg t="1557189929416" class="icon" style="" viewBox="0 0 1024 1024" version="1.1" xmlns="http://www.w3.org/2000/svg" p-id="1979" xmlns:xlink="http://www.w3.org/1999/xlink" width="800" height="800"><defs><style type="text/css"></style></defs><path d="M762.7 338.9v-28.2c0-71.2-24-132.1-69.5-176.1-45.4-43.9-108.3-67.1-181.9-67.1-73 0-135.3 23.2-180.4 67.1-45.1 43.9-69 104.8-69 176.1v28.2c-74.9 4.5-134.6 69.8-134.6 149v193.7h70V487.8c0-43.7 32.6-79.2 72.7-79.2h62v-0.4h360.8v0.5h62c40.1 0 72.7 35.5 72.7 79.2V805c0 43.7-32.6 79.2-72.7 79.2H270.1c-40.1 0-72.7-35.5-72.7-79.2v-7.5h-70.1v7.5c0 82.3 64 149.3 142.7 149.3h484.7c36.9 0 71.9-14.7 98.6-41.4 28.4-28.5 44.1-66.8 44-107.8V487.9c0-79.3-59.7-144.6-134.6-149z m-69.9-0.1H332v-28.1c0-106.8 68.7-173.1 179.4-173.1 111.9 0 181.4 66.3 181.4 173.1v28.1z" p-id="1980" fill="#999999"></path><path d="M545.6 755.4V643.8H579V513.7H444.6v130.1h33.3v111.6z" p-id="1981" fill="#999999"></path></svg>