<?xml version="1.0" encoding="utf-8"?>
<!-- Generator: Adobe Illustrator 22.1.0, SVG Export Plug-In . SVG Version: 6.00 Build 0)  -->
<svg version="1.1" id="图层_1" xmlns="http://www.w3.org/2000/svg" xmlns:xlink="http://www.w3.org/1999/xlink" x="0px" y="0px"
	 viewBox="0 0 800 800" style="enable-background:new 0 0 800 800;" xml:space="preserve">
<style type="text/css">
	.st0{fill:#FFFFFF;}
</style>
<path class="st0" d="M720,338.8v256c0,88.4-71.6,160-160,160H208c-88.4,0-160-71.6-160-160v-352c0-88.4,71.6-160,160-160h256v64H208
	c-53,0-96,43-96,96l0,0v352c0,53,43,96,96,96l0,0h352c53,0,96-43,96-96l0,0v-256L720,338.8L720,338.8z M720,338.8v256
	c0,88.4-71.6,160-160,160H208c-88.4,0-160-71.6-160-160v-352c0-88.4,71.6-160,160-160h256v64H208c-53,0-96,43-96,96l0,0v352
	c0,53,43,96,96,96l0,0h352c53,0,96-43,96-96l0,0v-256L720,338.8L720,338.8z M364.3,360.2L629.4,95l79.2,79.2L443.5,439.4l-98.6,21.9
	L364.3,360.2L364.3,360.2z M641.5,83l25.6-25.6c12.5-12.5,32.8-12.5,45.2,0l33.9,34c12.5,12.5,12.5,32.8,0,45.3c0,0,0,0,0,0
	l-25.6,25.6L641.5,83L641.5,83z"/>
</svg>
