<?xml version="1.0" encoding="utf-8"?>
<!-- Generator: Adobe Illustrator 22.1.0, SVG Export Plug-In . SVG Version: 6.00 Build 0)  -->
<svg version="1.1" id="图层_1" xmlns="http://www.w3.org/2000/svg" xmlns:xlink="http://www.w3.org/1999/xlink" x="0px" y="0px"
	 viewBox="0 0 800 800" style="enable-background:new 0 0 800 800;" xml:space="preserve">
<style type="text/css">
	.st0{fill:#FFFFFF;}
</style>
<path class="st0" d="M729.6,731.4c-0.8,18.2-16.3,32.4-34.6,31.5c-17.1-0.8-30.7-14.5-31.5-31.5l-0.1-0.4h-0.9
	c-15.9-129.4-123.8-227.9-254.1-232c-2.8,0.1-5.6,0.4-8.5,0.4c-2.9,0-5.6-0.3-8.5-0.4c-130.3,4.2-238.1,102.6-254,232h-0.9l0,0.4
	c0,18.2-14.8,33-33,33s-33-14.8-33-33l-0.3-3.1c0-4.3,0.9-8.5,2.4-12.2c16.4-114,90.8-211.4,196.6-257
	c-105.8-72.1-133.2-216.3-61.1-322.2C251.5,73.4,323.3,35.5,400,35.5c128.1,0,231.9,103.8,231.9,231.8
	c0,76.6-37.9,148.4-101.2,191.6C637.6,505,712.5,603.8,727.9,719.2c0.8,2.9,1.4,5.9,1.4,9L729.6,731.4L729.6,731.4z M565.5,267.5
	c0-91.4-74.1-165.6-165.6-165.6s-165.6,74.1-165.6,165.6c-1.9,91.4,70.7,167.1,162.2,169c91.4,1.9,167.1-70.7,169-162.2
	C565.6,272.1,565.6,269.8,565.5,267.5z"/>
</svg>
