<?xml version="1.0" standalone="no"?><!DOCTYPE svg PUBLIC "-//W3C//DTD SVG 1.1//EN" "http://www.w3.org/Graphics/SVG/1.1/DTD/svg11.dtd"><svg class="icon" width="200px" height="200.00px" viewBox="0 0 1024 1024" version="1.1" xmlns="http://www.w3.org/2000/svg"><path d="M555.426046 941.379235C535.235437 952.331582 520.565524 957.206713 507.876828 957.206713 495.099089 957.206713 480.852133 952.376104 460.327611 941.023061 117.888653 751.82793 119.023958 648.203582 123.231262 262.623061 123.654219 224.289843 124.099436 183.374364 124.233001 139.542712 177.280653 123.826538 234.001349 109.000799 293.170741 95.421668 357.794046 80.573668 429.674394 70.979234 506.763785 66.860973 653.440654 83.133668 765.947089 104.593147 887.803089 139.74306 888.025698 189.273494 888.671263 235.019582 889.227785 277.404278 894.548133 664.966017 895.839263 757.059235 555.426046 941.379235M956.010394 276.491582C955.342568 227.295061 954.607959 173.624103 954.496654 114.677321 954.474394 99.962886 944.790915 86.984799 930.677524 82.777494 794.619089 41.95106 673.163785 18.020625 511.394046 0.189668 509.613176-0.010679 507.810046-0.03294 506.029176 0.033842 424.020133 4.263408 347.375959 14.458886 278.211436 30.330886 208.623958 46.31419 142.264306 63.989321 81.046914 82.844277 67.067088 87.140625 57.494914 100.096451 57.494914 114.744103 57.494914 167.791755 56.938393 216.632103 56.470914 261.888452 52.241349 646.912452 50.660827 790.9848 428.027089 999.480104 459.147785 1016.665495 483.033698 1023.989321 507.876828 1023.989321 532.274741 1023.989321 556.761698 1016.620974 587.236828 1000.125669 963.156133 796.527756 961.508828 675.962887 956.010394 276.491582M741.989941 291.357391 440.88942 593.593217 293.077246 445.269043C275.736027 427.883304 247.531506 427.816521 230.101245 445.157739 212.693245 462.521217 212.648723 490.703478 229.98994 508.133739L409.345768 688.112869C417.715854 696.482956 429.046637 701.202261 440.88942 701.202261 452.732202 701.202261 464.085246 696.482956 472.433072 688.090608L805.077246 354.177565C822.418463 336.769565 822.373941 308.565043 804.943681 291.223826 787.557941 273.882608 759.331159 273.904869 741.989941 291.357391" fill="#182B49" /></svg>