<?xml version="1.0" encoding="utf-8"?>
<!-- Generator: Adobe Illustrator 22.1.0, SVG Export Plug-In . SVG Version: 6.00 Build 0)  -->
<svg version="1.1" id="图层_1" xmlns="http://www.w3.org/2000/svg" xmlns:xlink="http://www.w3.org/1999/xlink" x="0px" y="0px"
	 viewBox="0 0 800 800" style="enable-background:new 0 0 800 800;" xml:space="preserve">
<style type="text/css">
	.st0{fill:#FFFFFF;}
</style>
<path class="st0" d="M592.7,520c40-54.5,61.8-120,61.8-192.7C654.5,145.5,509.1,0,327.3,0S0,145.5,0,327.3s145.5,327.3,327.3,327.3
	c72.7,0,138.2-21.8,192.7-61.8L727.3,800c0,0,72.7,0,72.7-72.7L592.7,520z M327.3,581.8c-141.8,0-254.5-112.7-254.5-254.5
	S185.5,72.7,327.3,72.7s254.5,112.7,254.5,254.5S469.1,581.8,327.3,581.8z"/>
</svg>
