<?xml version="1.0" encoding="utf-8"?>
<!-- Generator: Adobe Illustrator 22.1.0, SVG Export Plug-In . SVG Version: 6.00 Build 0)  -->
<svg version="1.1" id="图层_1" xmlns="http://www.w3.org/2000/svg" xmlns:xlink="http://www.w3.org/1999/xlink" x="0px" y="0px"
	 viewBox="0 0 800 800" style="enable-background:new 0 0 800 800;" xml:space="preserve">
<style type="text/css">
	.st0{fill:#182B49;}
	.st1{display:none;fill:#FFFFFF;}
	.st2{fill:#FFFFFF;}
</style>
<circle class="st0" cx="406.6" cy="414" r="297.1"/>
<path class="st1" d="M617.9,322.7H575c-2,0-3.9,0.6-5.6,1.5L550.1,266c-6.2-33.1-29.5-49.1-58.1-49.1H310.4
	c-32.9,0-52.8,21.5-58.1,49.1l-19.4,58.4c-1.8-1-3.8-1.7-5.9-1.7h-42.9c-6.6,0-11.9,5.3-11.9,11.9V345c0,6.6,5.3,11.9,11.9,11.9
	l16.2,2.8c-5.1,10-8,21.5-8,34.8l-6,68.7c0,2,0.1,4,0.4,6.1c-0.2,1.2-0.4,2.5-0.4,3.9v82.7c0,11.8,9.5,21.3,21.3,21.3h32.5
	c11.8,0,21.3-9.5,21.3-21.3v-26.6H541v26.6c0,11.8,9.5,21.3,21.3,21.3h32.5c11.8,0,21.3-9.5,21.3-21.3v-82.7c0-1.3-0.2-2.6-0.4-3.9
	c0.2-2,0.4-4.1,0.4-6.1l-6-68.7c0-13.4-2.9-24.8-8.1-34.9l15.9-2.7c6.6,0,11.9-5.3,11.9-11.9v-10.4
	C629.8,328,624.5,322.7,617.9,322.7z M266.6,310.4l14.2-37.8l0.2-0.9c1.4-7.6,4.6-9,9.2-14.9h222.2c4.7,6.1,7.6,7.6,8.9,14.8
	l14.4,38.7l5.3,21c-1.2,15.4-19.7,27.6-35.1,27.6H296.4c-15.4,0-33.9-12.2-35.1-27.6L266.6,310.4z M276.6,490.1
	c-17.8,0-32.3-14.4-32.3-32.3c0-17.8,14.4-32.3,32.3-32.3c17.8,0,32.3,14.4,32.3,32.3C308.8,475.6,294.4,490.1,276.6,490.1z
	 M456.8,466.3L456.8,466.3c0,5.3-4.3,9.6-9.6,9.6h-90.5c-5.3,0-9.6-4.3-9.6-9.6v-27c0-5.3,4.3-9.6,9.6-9.6h90.5
	c5.3,0,9.6,4.3,9.6,9.6V466.3z M525.8,490.1c-17.8,0-32.3-14.4-32.3-32.3c0-17.8,14.4-32.3,32.3-32.3c17.8,0,32.3,14.4,32.3,32.3
	C558.1,475.6,543.6,490.1,525.8,490.1z"/>
<path class="st2" d="M508,403.6c-11.6-4.2-24.5-6.6-38.2-6.8c-8.3,21.5-35.3,37.3-67.4,37.3c-32.1,0-59.1-15.8-67.4-37.3
	c-50.7,0.8-91.5,32.2-91.5,70.9L226,567.9c0.6,2.1,1.5,4.3,2.7,6.4c10.2,18.1,26.7,31.4,68,39.1C378,597.8,448.9,563,480.2,509.9
	C505.3,467.5,507.2,424.8,508,403.6z M565.8,466.8c0-23.8-19.8-43.9-43.3-56.8c-1.1,23-5,65.7-29.6,107.4
	c-28.4,48.1-73.7,78.9-139.6,98.2h50.1c85.5,0,154.4-17.2,174.2-40.1c2.9-4.2,9.1-13.4,9.6-15.5L565.8,466.8z M402.5,406
	c12.2,0,23.7-3.5,34.3-9.3c12.4-6.8,23.6-17.1,32.6-29.2c16.4-21.7,26.5-49.4,26.5-74.5c0-51.1-41.9-92.5-93.5-92.5
	c-51.6,0-93.5,41.4-93.5,92.5c0,25.1,10.1,52.8,26.5,74.5c9.1,12.1,20.2,22.4,32.6,29.2C378.8,402.5,390.3,406,402.5,406z"/>
</svg>
